<svg width="265" height="295" viewBox="0 0 265 295" fill="none" xmlns="http://www.w3.org/2000/svg">
<path d="M26.1074 3.37183C-6.06637 37.5993 -7.06844 103.226 47.7552 112.239C70.7582 116.02 87.4408 98.7699 102.764 83.8977C108.119 78.7003 120.863 63.3437 107.051 63.6093C77.8793 64.1703 50.5788 106.32 50.5788 132.109C50.5788 151.777 50.6593 169.874 64.5924 185.549C77.6873 200.28 97.3449 206.673 116.359 206.673C147.402 206.673 180.248 203.749 178.584 164.633C178.168 154.862 164.385 157.151 158.295 159.613C147.713 163.891 146.093 177.214 146.687 187.013C148.684 219.962 184.037 251.144 211.421 265.029C222.496 270.644 234.258 281.166 246.351 283.853C253.061 285.344 256.189 287.206 261.41 291.382" stroke="#F8C15B" stroke-width="6" stroke-linecap="round"/>
</svg>
