<svg width="608" height="130" viewBox="0 0 608 130" fill="none" xmlns="http://www.w3.org/2000/svg">
<path d="M577.23 2.03826C477.342 1.72305 378.358 15.9618 278.609 22.4878C238.88 25.087 198.996 24.1161 159.175 26.5198C126.865 28.4701 91.6859 30.5857 59.964 36.8792C41.5276 40.5369 12.3693 51.9018 3.88198 67.5215C-5.3288 84.4727 14.3877 97.4171 29.9311 103.209C58.2735 113.771 85.9468 118.1 116.893 121.328C161.683 126 204.883 129.019 250.432 127.199C299.284 125.247 348.434 119.791 397.096 114.904C443.76 110.217 490.456 104.907 535.65 92.6952C550.774 88.6083 564.086 83.822 577.528 76.6424C586.318 71.947 602.931 65.8025 605.566 56.517C611.513 35.5598 565.602 29.1987 549.38 25.6329C504.207 15.7033 453.414 18.9246 406.749 16.7916C354.192 14.3892 301.908 14.2071 249.127 16.3006C198.703 18.3006 147.683 24.479 97.5018 30.1473C69.2433 33.3393 43.5332 38.0406 17.8255 48.746" stroke="#F8C15B" stroke-width="3" stroke-linecap="round"/>
</svg>
